<?xml version="1.0" standalone="no"?>
<!DOCTYPE svg PUBLIC "-//W3C//DTD SVG 20010904//EN"
 "http://www.w3.org/TR/2001/REC-SVG-20010904/DTD/svg10.dtd">
<svg version="1.0" xmlns="http://www.w3.org/2000/svg"
 width="64.000000pt" height="64.000000pt" viewBox="0 0 64.000000 64.000000"
 preserveAspectRatio="xMidYMid meet">

<g transform="translate(0.000000,64.000000) scale(0.100000,-0.100000)"
fill="#000000" stroke="none">
<path d="M233 615 c-98 -49 -132 -140 -93 -255 20 -60 136 -293 166 -335 14
-18 14 -18 28 0 33 46 156 295 171 349 21 71 15 122 -21 176 -31 46 -110 90
-164 90 -20 0 -59 -11 -87 -25z " fill="#FF0132" stroke-width="25" stroke="white" />
<path d="M307 584 c-4 -4 -7 -20 -7 -35 0 -32 -18 -48 -31 -28 -7 11 -9 11 -9
-3 0 -23 -20 -34 -31 -17 -7 11 -9 9 -9 -7 0 -12 -7 -24 -15 -28 -16 -6 -21
-36 -6 -36 5 0 30 9 55 20 l46 19 0 -41 c0 -25 -7 -49 -17 -60 -15 -17 -14
-18 38 -17 52 0 53 1 32 16 -18 12 -23 25 -23 60 0 32 4 44 13 40 6 -3 31 -13
55 -22 24 -10 45 -15 49 -12 3 3 -1 19 -8 36 -8 18 -16 26 -20 19 -10 -15 -39
8 -39 31 0 14 -2 14 -10 1 -12 -20 -28 -4 -32 34 -3 29 -18 43 -31 30z" fill="#fff"/>
</g>
</svg>
